<?xml version="1.0" encoding="UTF-8"?>
<svg xmlns="http://www.w3.org/2000/svg" style="stroke-dasharray:none; shape-rendering:auto; font-family:'Arial'; text-rendering:auto; fill-opacity:1; color-interpolation:auto; color-rendering:auto; font-size:12; fill:black; stroke:black; image-rendering:auto; stroke-miterlimit:10; stroke-linecap:square; stroke-linejoin:miter; font-style:normal; stroke-width:1; stroke-dashoffset:0; font-weight:normal; stroke-opacity:1;" contentScriptType="text/ecmascript" preserveAspectRatio="xMidYMid meet" zoomAndPan="magnify" version="1.0" contentStyleType="text/css" xml:xlink="http://www.w3.org/1999/xlink" width="1401" height="541"><rect x="90" y="82" width="1311" height="151" ry="0" rx="0" style="stroke:#000000; fill:#F0F0F0" /><g componentSequence="16"><text x="-157" y="98" transform="rotate(270)" text-anchor="middle" style="font-weight:bold;font-size:10px;stroke:none; fill:#434343"><tspan dy="14" x="-157">Solicitante</tspan></text></g><rect x="90" y="382" width="1311" height="159" ry="0" rx="0" style="stroke:#000000; fill:#CECECE" /><g componentSequence="18"><text x="-461" y="98" transform="rotate(270)" text-anchor="middle" style="font-weight:bold;font-size:10px;stroke:none; fill:#434343"><tspan dy="14" x="-461">Financeiro</tspan></text></g><rect x="90" y="232" width="1311" height="151" ry="0" rx="0" style="stroke:#000000; fill:#E4E4E4" /><g componentSequence="17"><text x="-307" y="98" transform="rotate(270)" text-anchor="middle" style="font-weight:bold;font-size:10px;stroke:none; fill:#434343"><tspan dy="14" x="-307">Centro de Custo</tspan></text></g><g sequence="1"><ellipse cx="177" cy="157" rx="17" ry="17" stroke-width="1" style="fill:url(#linearGradient66FF6696FF96B6FFB6_2121578591);" stroke="336633" /></g><g sequence="2"><rect x="270" y="280" width="106" height="60" ry="5" rx="5" style="fill:url(#linearGradientF8FBFEEDF5FCDEEDFAD4E7F8E2E5E9_1890798049);" stroke="191970" /></g><g componentSequence="2"><text x="323" y="299" text-anchor="middle" style="font-weight:bold;font-size:10px;stroke:none; fill:#333399"><tspan dy="14" x="323">Aprovação</tspan></text></g><g sequence="3"><rect x="570" y="426" width="106" height="76" ry="5" rx="5" style="fill:url(#linearGradientF8FBFEEDF5FCDEEDFAD4E7F8E2E5E9_1955386159);" stroke="191970" /></g><g componentSequence="3"><text x="623" y="441" text-anchor="middle" style="font-weight:bold;font-size:10px;stroke:none; fill:#333399"><tspan dy="14" x="623">Efetuar</tspan><tspan dy="14" x="623">pagamento</tspan></text></g><g sequence="9"><ellipse cx="622" cy="159" rx="17" ry="17" stroke-width="3" style="fill:url(#linearGradientFF6666FF9696FFB6B6_831407066);" stroke="993333" /></g><g sequence="9"><polygon points=" 613 155 618 150 623 155 628 150 633 155 628 160 633 165 628 170 623 165 618 170 613 165 618 160" style="stroke:none; fill:#993333" /></g><g sequence="14"><ellipse cx="1367" cy="159" rx="17" ry="17" stroke-width="3" style="fill:url(#linearGradientFF6666FF9696FFB6B6_1793303540);" stroke="993333" /></g><g sequence="20"><rect x="960" y="130" width="271" height="60" ry="5" rx="5" style="fill:url(#linearGradientF8FBFEEDF5FCDEEDFAD4E7F8E2E5E9_7672584);" stroke="191970" /></g><g componentSequence="20"><text x="1095" y="149" text-anchor="middle" style="font-weight:bold;font-size:10px;stroke:none; fill:#333399"><tspan dy="14" x="1095">Confirmação de Recebimento</tspan></text></g><g componentSequence="5"><text x="187" y="288" style="font-size:10px;font-weight:none;stroke:none; fill:#333399" text-anchor="left" /></g><g componentSequence="6"><text x="425" y="464" style="font-size:10px;font-weight:none;stroke:none; fill:#333399" text-anchor="left" /></g><g componentSequence="12"><text x="443" y="159" style="font-size:10px;font-weight:none;stroke:none; fill:#333399" text-anchor="left" /></g><g componentSequence="13"><text x="632" y="301" style="font-size:10px;font-weight:none;stroke:none; fill:#333399" text-anchor="left" /></g><g componentSequence="15"><text x="1300" y="159" style="font-size:10px;font-weight:none;stroke:none; fill:#333399" text-anchor="left" /></g><g componentSequence="19"><text x="813" y="288" style="font-size:10px;font-weight:none;stroke:none; fill:#333399" text-anchor="left" /></g><path style="fill:none; stroke:#F00000;stroke-width:1" d="M177.0 175.0 L177.0 309.0 L269.0 309.0" /><polygon style="fill:#F00000; stroke:#F00000;" points=" 259 304 269 309 259 314 261 309" /><polygon style="fill:#F00000; stroke:#F00000;" points=" 172 185 177 175 182 185 177 183" /><path style="fill:none; stroke:#000000;stroke-width:1" d="M338.0 340.0 L400.0 464.0 L569.0 464.0" /><polygon style="fill:#000000; stroke:#000000;" points=" 559 459 569 464 559 469 561 464" /><path style="fill:none; stroke:#000000;stroke-width:1" d="M337.0 279.0 L396.0 159.0 L604.0 159.0" /><polygon style="fill:#000000; stroke:#000000;" points=" 594 154 604 159 594 164 596 159" /><path style="fill:none; stroke:#000000;stroke-width:1" d="M622.0 425.0 L622.0 176.0" /><polygon style="fill:#000000; stroke:#000000;" points=" 617 186 622 176 627 186 622 184" /><path style="fill:none; stroke:#000000;stroke-width:1" d="M1231.0 159.0 L1350.0 159.0" /><polygon style="fill:#000000; stroke:#000000;" points=" 1340 154 1350 159 1340 164 1342 159" /><path style="fill:none; stroke:#000000;stroke-width:1" d="M676.0 463.0 L715.0 463.0 L867.0 160.0 L959.0 160.0" /><polygon style="fill:#000000; stroke:#000000;" points=" 949 155 959 160 949 165 951 160" /><defs><linearGradient xmlns:xlink="http://www.w3.org/1999/xlink" xlink:href="#linearGradient66FF6696FF96B6FFB6" id="linearGradient66FF6696FF96B6FFB6_2121578591" x1="0" y1="140.0" x2="0" y2="175.0" gradientUnits="userSpaceOnUse" xlink:type="simple" xlink:actuate="onLoad" xlink:show="other" /><linearGradient id="linearGradient66FF6696FF96B6FFB6"><stop style="stop-color:#66FF66;stop-opacity:1;" offset="0.0" id="stop66FF66" /><stop style="stop-color:#96FF96;stop-opacity:1;" offset="0.5" id="stop96FF96" /><stop style="stop-color:#B6FFB6;stop-opacity:1;" offset="1.0" id="stopB6FFB6" /></linearGradient><linearGradient xmlns:xlink="http://www.w3.org/1999/xlink" xlink:href="#linearGradientF8FBFEEDF5FCDEEDFAD4E7F8E2E5E9" id="linearGradientF8FBFEEDF5FCDEEDFAD4E7F8E2E5E9_1890798049" x1="0" y1="280.0" x2="0" y2="386.0" gradientUnits="userSpaceOnUse" xlink:type="simple" xlink:actuate="onLoad" xlink:show="other" /><linearGradient id="linearGradientF8FBFEEDF5FCDEEDFAD4E7F8E2E5E9"><stop style="stop-color:#F8FBFE;stop-opacity:1;" offset="0.0" id="stopF8FBFE" /><stop style="stop-color:#EDF5FC;stop-opacity:1;" offset="0.25" id="stopEDF5FC" /><stop style="stop-color:#DEEDFA;stop-opacity:1;" offset="0.5" id="stopDEEDFA" /><stop style="stop-color:#D4E7F8;stop-opacity:1;" offset="0.75" id="stopD4E7F8" /><stop style="stop-color:#E2E5E9;stop-opacity:1;" offset="1.0" id="stopE2E5E9" /></linearGradient><linearGradient xmlns:xlink="http://www.w3.org/1999/xlink" xlink:href="#linearGradientF8FBFEEDF5FCDEEDFAD4E7F8E2E5E9" id="linearGradientF8FBFEEDF5FCDEEDFAD4E7F8E2E5E9_1955386159" x1="0" y1="426.0" x2="0" y2="532.0" gradientUnits="userSpaceOnUse" xlink:type="simple" xlink:actuate="onLoad" xlink:show="other" /><linearGradient xmlns:xlink="http://www.w3.org/1999/xlink" xlink:href="#linearGradientFF6666FF9696FFB6B6" id="linearGradientFF6666FF9696FFB6B6_831407066" x1="0" y1="142.0" x2="0" y2="177.0" gradientUnits="userSpaceOnUse" xlink:type="simple" xlink:actuate="onLoad" xlink:show="other" /><linearGradient id="linearGradientFF6666FF9696FFB6B6"><stop style="stop-color:#FF6666;stop-opacity:1;" offset="0.0" id="stopFF6666" /><stop style="stop-color:#FF9696;stop-opacity:1;" offset="0.5" id="stopFF9696" /><stop style="stop-color:#FFB6B6;stop-opacity:1;" offset="1.0" id="stopFFB6B6" /></linearGradient><linearGradient xmlns:xlink="http://www.w3.org/1999/xlink" xlink:href="#linearGradientFF6666FF9696FFB6B6" id="linearGradientFF6666FF9696FFB6B6_1793303540" x1="0" y1="142.0" x2="0" y2="177.0" gradientUnits="userSpaceOnUse" xlink:type="simple" xlink:actuate="onLoad" xlink:show="other" /><linearGradient xmlns:xlink="http://www.w3.org/1999/xlink" xlink:href="#linearGradientF8FBFEEDF5FCDEEDFAD4E7F8E2E5E9" id="linearGradientF8FBFEEDF5FCDEEDFAD4E7F8E2E5E9_7672584" x1="0" y1="130.0" x2="0" y2="401.0" gradientUnits="userSpaceOnUse" xlink:type="simple" xlink:actuate="onLoad" xlink:show="other" /></defs></svg>
