<?xml version="1.0" encoding="UTF-8"?>
<svg xmlns="http://www.w3.org/2000/svg" style="stroke-dasharray:none; shape-rendering:auto; font-family:'Arial'; text-rendering:auto; fill-opacity:1; color-interpolation:auto; color-rendering:auto; font-size:12; fill:black; stroke:black; image-rendering:auto; stroke-miterlimit:10; stroke-linecap:square; stroke-linejoin:miter; font-style:normal; stroke-width:1; stroke-dashoffset:0; font-weight:normal; stroke-opacity:1;" contentScriptType="text/ecmascript" preserveAspectRatio="xMidYMid meet" zoomAndPan="magnify" version="1.0" contentStyleType="text/css" xml:xlink="http://www.w3.org/1999/xlink" width="1401" height="541"><rect x="90" y="382" width="1311" height="159" ry="0" rx="0" style="stroke:#000000; fill:#CECECE" /><g componentSequence="18"><text x="-461" y="98" transform="rotate(270)" text-anchor="middle" style="font-weight:bold;font-size:10px;stroke:none; fill:#434343"><tspan dy="14" x="-461">Financeiro</tspan></text></g><rect x="90" y="232" width="1311" height="151" ry="0" rx="0" style="stroke:#000000; fill:#E4E4E4" /><g componentSequence="17"><text x="-307" y="98" transform="rotate(270)" text-anchor="middle" style="font-weight:bold;font-size:10px;stroke:none; fill:#434343"><tspan dy="14" x="-307">Centro de Custo</tspan></text></g><rect x="90" y="82" width="1311" height="151" ry="0" rx="0" style="stroke:#000000; fill:#F0F0F0" /><g componentSequence="16"><text x="-157" y="98" transform="rotate(270)" text-anchor="middle" style="font-weight:bold;font-size:10px;stroke:none; fill:#434343"><tspan dy="14" x="-157">Solicitante</tspan></text></g><g sequence="1"><ellipse cx="177" cy="157" rx="17" ry="17" stroke-width="1" style="fill:url(#linearGradient66FF6696FF96B6FFB6_395172641);" stroke="336633" /></g><g sequence="2"><rect x="270" y="280" width="261" height="60" ry="5" rx="5" style="fill:url(#linearGradientF8FBFEEDF5FCDEEDFAD4E7F8E2E5E9_424290208);" stroke="191970" /></g><g componentSequence="2"><text x="400" y="299" text-anchor="middle" style="font-weight:bold;font-size:10px;stroke:none; fill:#333399"><tspan dy="14" x="400">Aprovação</tspan></text></g><g sequence="3"><rect x="570" y="434" width="261" height="60" ry="5" rx="5" style="fill:url(#linearGradientF8FBFEEDF5FCDEEDFAD4E7F8E2E5E9_494252113);" stroke="191970" /></g><g componentSequence="3"><text x="700" y="453" text-anchor="middle" style="font-weight:bold;font-size:10px;stroke:none; fill:#333399"><tspan dy="14" x="700">Validação</tspan></text></g><g sequence="4"><rect x="950" y="434" width="261" height="60" ry="5" rx="5" style="fill:url(#linearGradientF8FBFEEDF5FCDEEDFAD4E7F8E2E5E9_1484205467);" stroke="191970" /></g><g componentSequence="4"><text x="1080" y="453" text-anchor="middle" style="font-weight:bold;font-size:10px;stroke:none; fill:#333399"><tspan dy="14" x="1080">Efetuar pagamento</tspan></text></g><g sequence="8"><rect x="950" y="128" width="261" height="60" ry="5" rx="5" style="fill:url(#linearGradientF8FBFEEDF5FCDEEDFAD4E7F8E2E5E9_559591783);" stroke="191970" /></g><g componentSequence="8"><text x="1080" y="147" text-anchor="middle" style="font-weight:bold;font-size:10px;stroke:none; fill:#333399"><tspan dy="14" x="1080">Resultado</tspan></text></g><g sequence="9"><ellipse cx="617" cy="157" rx="17" ry="17" stroke-width="3" style="fill:url(#linearGradientFF6666FF9696FFB6B6_1776678347);" stroke="993333" /></g><g sequence="9"><polygon points=" 608 153 613 148 618 153 623 148 628 153 623 158 628 163 623 168 618 163 613 168 608 163 613 158" style="stroke:none; fill:#993333" /></g><g sequence="14"><ellipse cx="1337" cy="157" rx="17" ry="17" stroke-width="3" style="fill:url(#linearGradientFF6666FF9696FFB6B6_1495414686);" stroke="993333" /></g><g componentSequence="5"><text x="187" y="288" style="font-size:10px;font-weight:none;stroke:none; fill:#333399" text-anchor="left" /></g><g componentSequence="6"><text x="433" y="464" style="font-size:10px;font-weight:none;stroke:none; fill:#333399" text-anchor="left" /></g><g componentSequence="7"><text x="900" y="464" style="font-size:10px;font-weight:none;stroke:none; fill:#333399" text-anchor="left" /></g><g componentSequence="10"><text x="1090" y="311" style="font-size:10px;font-weight:none;stroke:none; fill:#333399" text-anchor="left" /></g><g componentSequence="12"><text x="449" y="157" style="font-size:10px;font-weight:none;stroke:none; fill:#333399" text-anchor="left" /></g><g componentSequence="13"><text x="710" y="263" style="font-size:10px;font-weight:none;stroke:none; fill:#333399" text-anchor="left" /></g><g componentSequence="15"><text x="1275" y="157" style="font-size:10px;font-weight:none;stroke:none; fill:#333399" text-anchor="left" /></g><path style="fill:none; stroke:#F00000;stroke-width:1" d="M177.0 175.0 L177.0 309.0 L269.0 309.0" /><polygon style="fill:#F00000; stroke:#F00000;" points=" 259 304 269 309 259 314 261 309" /><polygon style="fill:#F00000; stroke:#F00000;" points=" 172 185 177 175 182 185 177 183" /><path style="fill:none; stroke:#000000;stroke-width:1" d="M400.0 340.0 L400.0 464.0 L569.0 464.0" /><polygon style="fill:#000000; stroke:#000000;" points=" 559 459 569 464 559 469 561 464" /><path style="fill:none; stroke:#000000;stroke-width:1" d="M831.0 464.0 L949.0 464.0" /><polygon style="fill:#000000; stroke:#000000;" points=" 939 459 949 464 939 469 941 464" /><path style="fill:none; stroke:#000000;stroke-width:1" d="M1080.0 433.0 L1080.0 188.0" /><polygon style="fill:#000000; stroke:#000000;" points=" 1075 198 1080 188 1085 198 1080 196" /><path style="fill:none; stroke:#000000;stroke-width:1" d="M400.0 279.0 L400.0 157.0 L599.0 157.0" /><polygon style="fill:#000000; stroke:#000000;" points=" 589 152 599 157 589 162 591 157" /><path style="fill:none; stroke:#000000;stroke-width:1" d="M700.0 433.0 L700.0 157.0 L635.0 157.0" /><polygon style="fill:#000000; stroke:#000000;" points=" 645 162 635 157 645 152 643 157" /><path style="fill:none; stroke:#000000;stroke-width:1" d="M1211.0 157.0 L1320.0 157.0" /><polygon style="fill:#000000; stroke:#000000;" points=" 1310 152 1320 157 1310 162 1312 157" /><defs><linearGradient xmlns:xlink="http://www.w3.org/1999/xlink" xlink:href="#linearGradient66FF6696FF96B6FFB6" id="linearGradient66FF6696FF96B6FFB6_395172641" x1="0" y1="140.0" x2="0" y2="175.0" gradientUnits="userSpaceOnUse" xlink:type="simple" xlink:actuate="onLoad" xlink:show="other" /><linearGradient id="linearGradient66FF6696FF96B6FFB6"><stop style="stop-color:#66FF66;stop-opacity:1;" offset="0.0" id="stop66FF66" /><stop style="stop-color:#96FF96;stop-opacity:1;" offset="0.5" id="stop96FF96" /><stop style="stop-color:#B6FFB6;stop-opacity:1;" offset="1.0" id="stopB6FFB6" /></linearGradient><linearGradient xmlns:xlink="http://www.w3.org/1999/xlink" xlink:href="#linearGradientF8FBFEEDF5FCDEEDFAD4E7F8E2E5E9" id="linearGradientF8FBFEEDF5FCDEEDFAD4E7F8E2E5E9_424290208" x1="0" y1="280.0" x2="0" y2="541.0" gradientUnits="userSpaceOnUse" xlink:type="simple" xlink:actuate="onLoad" xlink:show="other" /><linearGradient id="linearGradientF8FBFEEDF5FCDEEDFAD4E7F8E2E5E9"><stop style="stop-color:#F8FBFE;stop-opacity:1;" offset="0.0" id="stopF8FBFE" /><stop style="stop-color:#EDF5FC;stop-opacity:1;" offset="0.25" id="stopEDF5FC" /><stop style="stop-color:#DEEDFA;stop-opacity:1;" offset="0.5" id="stopDEEDFA" /><stop style="stop-color:#D4E7F8;stop-opacity:1;" offset="0.75" id="stopD4E7F8" /><stop style="stop-color:#E2E5E9;stop-opacity:1;" offset="1.0" id="stopE2E5E9" /></linearGradient><linearGradient xmlns:xlink="http://www.w3.org/1999/xlink" xlink:href="#linearGradientF8FBFEEDF5FCDEEDFAD4E7F8E2E5E9" id="linearGradientF8FBFEEDF5FCDEEDFAD4E7F8E2E5E9_494252113" x1="0" y1="434.0" x2="0" y2="695.0" gradientUnits="userSpaceOnUse" xlink:type="simple" xlink:actuate="onLoad" xlink:show="other" /><linearGradient xmlns:xlink="http://www.w3.org/1999/xlink" xlink:href="#linearGradientF8FBFEEDF5FCDEEDFAD4E7F8E2E5E9" id="linearGradientF8FBFEEDF5FCDEEDFAD4E7F8E2E5E9_1484205467" x1="0" y1="434.0" x2="0" y2="695.0" gradientUnits="userSpaceOnUse" xlink:type="simple" xlink:actuate="onLoad" xlink:show="other" /><linearGradient xmlns:xlink="http://www.w3.org/1999/xlink" xlink:href="#linearGradientF8FBFEEDF5FCDEEDFAD4E7F8E2E5E9" id="linearGradientF8FBFEEDF5FCDEEDFAD4E7F8E2E5E9_559591783" x1="0" y1="128.0" x2="0" y2="389.0" gradientUnits="userSpaceOnUse" xlink:type="simple" xlink:actuate="onLoad" xlink:show="other" /><linearGradient xmlns:xlink="http://www.w3.org/1999/xlink" xlink:href="#linearGradientFF6666FF9696FFB6B6" id="linearGradientFF6666FF9696FFB6B6_1776678347" x1="0" y1="140.0" x2="0" y2="175.0" gradientUnits="userSpaceOnUse" xlink:type="simple" xlink:actuate="onLoad" xlink:show="other" /><linearGradient id="linearGradientFF6666FF9696FFB6B6"><stop style="stop-color:#FF6666;stop-opacity:1;" offset="0.0" id="stopFF6666" /><stop style="stop-color:#FF9696;stop-opacity:1;" offset="0.5" id="stopFF9696" /><stop style="stop-color:#FFB6B6;stop-opacity:1;" offset="1.0" id="stopFFB6B6" /></linearGradient><linearGradient xmlns:xlink="http://www.w3.org/1999/xlink" xlink:href="#linearGradientFF6666FF9696FFB6B6" id="linearGradientFF6666FF9696FFB6B6_1495414686" x1="0" y1="140.0" x2="0" y2="175.0" gradientUnits="userSpaceOnUse" xlink:type="simple" xlink:actuate="onLoad" xlink:show="other" /></defs></svg>
