<?xml version="1.0" encoding="UTF-8"?>
<svg xmlns="http://www.w3.org/2000/svg" style="stroke-dasharray:none; shape-rendering:auto; font-family:'Arial'; text-rendering:auto; fill-opacity:1; color-interpolation:auto; color-rendering:auto; font-size:12; fill:black; stroke:black; image-rendering:auto; stroke-miterlimit:10; stroke-linecap:square; stroke-linejoin:miter; font-style:normal; stroke-width:1; stroke-dashoffset:0; font-weight:normal; stroke-opacity:1;" contentScriptType="text/ecmascript" preserveAspectRatio="xMidYMid meet" zoomAndPan="magnify" version="1.0" contentStyleType="text/css" xml:xlink="http://www.w3.org/1999/xlink" width="1351" height="547"><rect x="40" y="88" width="1311" height="151" ry="0" rx="0" style="stroke:#000000; fill:#F0F0F0" /><g componentSequence="16"><text x="-163" y="48" transform="rotate(270)" text-anchor="middle" style="font-weight:bold;font-size:10px;stroke:none; fill:#434343"><tspan dy="14" x="-163">Solicitante</tspan></text></g><rect x="40" y="388" width="1311" height="159" ry="0" rx="0" style="stroke:#000000; fill:#CECECE" /><g componentSequence="18"><text x="-467" y="48" transform="rotate(270)" text-anchor="middle" style="font-weight:bold;font-size:10px;stroke:none; fill:#434343"><tspan dy="14" x="-467">Financeiro</tspan></text></g><rect x="40" y="238" width="1311" height="151" ry="0" rx="0" style="stroke:#000000; fill:#E4E4E4" /><g componentSequence="17"><text x="-313" y="48" transform="rotate(270)" text-anchor="middle" style="font-weight:bold;font-size:10px;stroke:none; fill:#434343"><tspan dy="14" x="-313">Centro de Custo</tspan></text></g><g sequence="1"><ellipse cx="127" cy="163" rx="17" ry="17" stroke-width="1" style="fill:url(#linearGradient66FF6696FF96B6FFB6_1316926909);" stroke="336633" /></g><g sequence="2"><rect x="220" y="286" width="106" height="60" ry="5" rx="5" style="fill:url(#linearGradientF8FBFEEDF5FCDEEDFAD4E7F8E2E5E9_1085882882);" stroke="191970" /></g><g componentSequence="2"><text x="273" y="305" text-anchor="middle" style="font-weight:bold;font-size:10px;stroke:none; fill:#333399"><tspan dy="14" x="273">Aprovação</tspan></text></g><g sequence="3"><rect x="520" y="432" width="106" height="76" ry="5" rx="5" style="fill:url(#linearGradientF8FBFEEDF5FCDEEDFAD4E7F8E2E5E9_1149689549);" stroke="191970" /></g><g componentSequence="3"><text x="573" y="447" text-anchor="middle" style="font-weight:bold;font-size:10px;stroke:none; fill:#333399"><tspan dy="14" x="573">Efetuar</tspan><tspan dy="14" x="573">pagamento</tspan></text></g><g sequence="9"><ellipse cx="572" cy="165" rx="17" ry="17" stroke-width="3" style="fill:url(#linearGradientFF6666FF9696FFB6B6_25446457);" stroke="993333" /></g><g sequence="9"><polygon points=" 563 161 568 156 573 161 578 156 583 161 578 166 583 171 578 176 573 171 568 176 563 171 568 166" style="stroke:none; fill:#993333" /></g><g sequence="14"><ellipse cx="1317" cy="165" rx="17" ry="17" stroke-width="3" style="fill:url(#linearGradientFF6666FF9696FFB6B6_988600041);" stroke="993333" /></g><g sequence="20"><rect x="910" y="136" width="271" height="60" ry="5" rx="5" style="fill:url(#linearGradientF8FBFEEDF5FCDEEDFAD4E7F8E2E5E9_810494692);" stroke="191970" /></g><g componentSequence="20"><text x="1045" y="155" text-anchor="middle" style="font-weight:bold;font-size:10px;stroke:none; fill:#333399"><tspan dy="14" x="1045">Confirmação de Recebimento</tspan></text></g><g componentSequence="5"><text x="137" y="294" style="font-size:10px;font-weight:none;stroke:none; fill:#333399" text-anchor="left" /></g><g componentSequence="6"><text x="375" y="470" style="font-size:10px;font-weight:none;stroke:none; fill:#333399" text-anchor="left" /></g><g componentSequence="12"><text x="393" y="165" style="font-size:10px;font-weight:none;stroke:none; fill:#333399" text-anchor="left" /></g><g componentSequence="13"><text x="582" y="307" style="font-size:10px;font-weight:none;stroke:none; fill:#333399" text-anchor="left" /></g><g componentSequence="15"><text x="1250" y="165" style="font-size:10px;font-weight:none;stroke:none; fill:#333399" text-anchor="left" /></g><g componentSequence="19"><text x="763" y="294" style="font-size:10px;font-weight:none;stroke:none; fill:#333399" text-anchor="left" /></g><path style="fill:none; stroke:#F00000;stroke-width:1" d="M127.0 181.0 L127.0 315.0 L219.0 315.0" /><polygon style="fill:#F00000; stroke:#F00000;" points=" 209 310 219 315 209 320 211 315" /><polygon style="fill:#F00000; stroke:#F00000;" points=" 122 191 127 181 132 191 127 189" /><path style="fill:none; stroke:#000000;stroke-width:1" d="M288.0 346.0 L350.0 470.0 L519.0 470.0" /><polygon style="fill:#000000; stroke:#000000;" points=" 509 465 519 470 509 475 511 470" /><path style="fill:none; stroke:#000000;stroke-width:1" d="M287.0 285.0 L346.0 165.0 L554.0 165.0" /><polygon style="fill:#000000; stroke:#000000;" points=" 544 160 554 165 544 170 546 165" /><path style="fill:none; stroke:#000000;stroke-width:1" d="M572.0 431.0 L572.0 182.0" /><polygon style="fill:#000000; stroke:#000000;" points=" 567 192 572 182 577 192 572 190" /><path style="fill:none; stroke:#000000;stroke-width:1" d="M1181.0 165.0 L1300.0 165.0" /><polygon style="fill:#000000; stroke:#000000;" points=" 1290 160 1300 165 1290 170 1292 165" /><path style="fill:none; stroke:#000000;stroke-width:1" d="M626.0 469.0 L665.0 469.0 L817.0 166.0 L909.0 166.0" /><polygon style="fill:#000000; stroke:#000000;" points=" 899 161 909 166 899 171 901 166" /><defs><linearGradient xmlns:xlink="http://www.w3.org/1999/xlink" xlink:href="#linearGradient66FF6696FF96B6FFB6" id="linearGradient66FF6696FF96B6FFB6_1316926909" x1="0" y1="146.0" x2="0" y2="181.0" gradientUnits="userSpaceOnUse" xlink:type="simple" xlink:actuate="onLoad" xlink:show="other" /><linearGradient id="linearGradient66FF6696FF96B6FFB6"><stop style="stop-color:#66FF66;stop-opacity:1;" offset="0.0" id="stop66FF66" /><stop style="stop-color:#96FF96;stop-opacity:1;" offset="0.5" id="stop96FF96" /><stop style="stop-color:#B6FFB6;stop-opacity:1;" offset="1.0" id="stopB6FFB6" /></linearGradient><linearGradient xmlns:xlink="http://www.w3.org/1999/xlink" xlink:href="#linearGradientF8FBFEEDF5FCDEEDFAD4E7F8E2E5E9" id="linearGradientF8FBFEEDF5FCDEEDFAD4E7F8E2E5E9_1085882882" x1="0" y1="286.0" x2="0" y2="392.0" gradientUnits="userSpaceOnUse" xlink:type="simple" xlink:actuate="onLoad" xlink:show="other" /><linearGradient id="linearGradientF8FBFEEDF5FCDEEDFAD4E7F8E2E5E9"><stop style="stop-color:#F8FBFE;stop-opacity:1;" offset="0.0" id="stopF8FBFE" /><stop style="stop-color:#EDF5FC;stop-opacity:1;" offset="0.25" id="stopEDF5FC" /><stop style="stop-color:#DEEDFA;stop-opacity:1;" offset="0.5" id="stopDEEDFA" /><stop style="stop-color:#D4E7F8;stop-opacity:1;" offset="0.75" id="stopD4E7F8" /><stop style="stop-color:#E2E5E9;stop-opacity:1;" offset="1.0" id="stopE2E5E9" /></linearGradient><linearGradient xmlns:xlink="http://www.w3.org/1999/xlink" xlink:href="#linearGradientF8FBFEEDF5FCDEEDFAD4E7F8E2E5E9" id="linearGradientF8FBFEEDF5FCDEEDFAD4E7F8E2E5E9_1149689549" x1="0" y1="432.0" x2="0" y2="538.0" gradientUnits="userSpaceOnUse" xlink:type="simple" xlink:actuate="onLoad" xlink:show="other" /><linearGradient xmlns:xlink="http://www.w3.org/1999/xlink" xlink:href="#linearGradientFF6666FF9696FFB6B6" id="linearGradientFF6666FF9696FFB6B6_25446457" x1="0" y1="148.0" x2="0" y2="183.0" gradientUnits="userSpaceOnUse" xlink:type="simple" xlink:actuate="onLoad" xlink:show="other" /><linearGradient id="linearGradientFF6666FF9696FFB6B6"><stop style="stop-color:#FF6666;stop-opacity:1;" offset="0.0" id="stopFF6666" /><stop style="stop-color:#FF9696;stop-opacity:1;" offset="0.5" id="stopFF9696" /><stop style="stop-color:#FFB6B6;stop-opacity:1;" offset="1.0" id="stopFFB6B6" /></linearGradient><linearGradient xmlns:xlink="http://www.w3.org/1999/xlink" xlink:href="#linearGradientFF6666FF9696FFB6B6" id="linearGradientFF6666FF9696FFB6B6_988600041" x1="0" y1="148.0" x2="0" y2="183.0" gradientUnits="userSpaceOnUse" xlink:type="simple" xlink:actuate="onLoad" xlink:show="other" /><linearGradient xmlns:xlink="http://www.w3.org/1999/xlink" xlink:href="#linearGradientF8FBFEEDF5FCDEEDFAD4E7F8E2E5E9" id="linearGradientF8FBFEEDF5FCDEEDFAD4E7F8E2E5E9_810494692" x1="0" y1="136.0" x2="0" y2="407.0" gradientUnits="userSpaceOnUse" xlink:type="simple" xlink:actuate="onLoad" xlink:show="other" /></defs></svg>
